<svg width="90.587mm" height="32.516mm" version="1.1" viewBox="0 0 90.587 32.516" xmlns="http://www.w3.org/2000/svg"><defs><marker id="marker1404" overflow="visible" orient="auto"><path transform="scale(-.6)" d="m8.7186 4.0337-10.926-4.0177 10.926-4.0177c-1.7455 2.3721-1.7354 5.6175 0 8.0354z" fill="#f2f2f2" fill-rule="evenodd" stroke="#f2f2f2" stroke-linejoin="round" stroke-width=".625"/></marker><marker id="marker1340" overflow="visible" orient="auto"><path transform="scale(-.6)" d="m8.7186 4.0337-10.926-4.0177 10.926-4.0177c-1.7455 2.3721-1.7354 5.6175 0 8.0354z" fill="#f2f2f2" fill-rule="evenodd" stroke="#f2f2f2" stroke-linejoin="round" stroke-width=".625"/></marker><marker id="marker1272" overflow="visible" orient="auto"><path transform="scale(-.6)" d="m8.7186 4.0337-10.926-4.0177 10.926-4.0177c-1.7455 2.3721-1.7354 5.6175 0 8.0354z" fill="#f2f2f2" fill-rule="evenodd" stroke="#f2f2f2" stroke-linejoin="round" stroke-width=".625"/></marker><marker id="marker1218" overflow="visible" orient="auto"><path transform="scale(-.6)" d="m8.7186 4.0337-10.926-4.0177 10.926-4.0177c-1.7455 2.3721-1.7354 5.6175 0 8.0354z" fill="#f2f2f2" fill-rule="evenodd" stroke="#f2f2f2" stroke-linejoin="round" stroke-width=".625"/></marker><marker id="marker1172" overflow="visible" orient="auto"><path transform="scale(-.6)" d="m8.7186 4.0337-10.926-4.0177 10.926-4.0177c-1.7455 2.3721-1.7354 5.6175 0 8.0354z" fill="#f2f2f2" fill-rule="evenodd" stroke="#f2f2f2" stroke-linejoin="round" stroke-width=".625"/></marker><marker id="Arrow2Mend" overflow="visible" orient="auto"><path transform="scale(-.6)" d="m8.7186 4.0337-10.926-4.0177 10.926-4.0177c-1.7455 2.3721-1.7354 5.6175 0 8.0354z" fill="#f2f2f2" fill-rule="evenodd" stroke="#f2f2f2" stroke-linejoin="round" stroke-width=".625"/></marker></defs><g transform="translate(3.0462 .013247)" fill="#ececec" font-family="'Noto Sans JP'" font-size="4.9389px" stroke-width=".26458"><text x="4.4598875" y="8.9181175" style="line-height:1.25" xml:space="preserve"><tspan x="4.4598875" y="8.9181175" fill="#ececec" stroke-width=".26458">Node.js</tspan></text><text x="7.3059669" y="18.292133" style="line-height:1.25" xml:space="preserve"><tspan x="7.3059669" y="18.292133" fill="#ececec" stroke-width=".26458">Ruby</tspan></text><text x="10.173038" y="27.438953" style="line-height:1.25" xml:space="preserve"><tspan x="10.173038" y="27.438953" fill="#ececec" stroke-width=".26458">Go</tspan></text></g><g transform="translate(-57.56 -108.15)" fill="#ececec" font-family="'Noto Sans JP'" font-size="4.9389px" stroke-width=".26458"><text x="119.29953" y="117.09293" style="line-height:1.25" xml:space="preserve"><tspan x="119.29953" y="117.09293" fill="#ececec" stroke-width=".26458">Windows</tspan></text><text x="121.42048" y="126.25334" style="line-height:1.25" xml:space="preserve"><tspan x="121.42048" y="126.25334" fill="#ececec" stroke-width=".26458">macOS</tspan></text><text x="123.31474" y="135.59895" style="line-height:1.25" xml:space="preserve"><tspan x="123.31474" y="135.59895" fill="#ececec" stroke-width=".26458">Linux</tspan></text></g><rect x="31.989" y="10.053" width="22.317" height="12.428" fill="none" stroke="#f2f2f2" stroke-linecap="round" stroke-width=".52917" style="paint-order:stroke markers fill"/><text x="34.370335" y="18.093008" fill="#f2f2f2" font-family="'Noto Sans JP'" font-size="4.9389px" font-weight="bold" stroke-width=".26458" style="line-height:1.25" xml:space="preserve"><tspan x="34.370335" y="18.093008" fill="#f2f2f2" font-family="'Noto Sans JP'" font-weight="bold" stroke-width=".26458">Docker</tspan></text><g transform="translate(-57.56 -108.15)" fill="#f2f2f2" stroke="#f2f2f2" stroke-width=".52917"><g transform="translate(.093866 -.75848)"><path d="m82.966 118.5 5.2372 3.0237" marker-end="url(#Arrow2Mend)"/><path d="m82.966 131.85 5.2372-3.0237" marker-end="url(#marker1172)"/></g><path d="m82.543 124.42h6.0474" marker-end="url(#marker1340)"/><g transform="translate(0 -.092618)"><path d="m112.54 121.07 5.2372-3.0237" marker-end="url(#marker1218)"/><path d="m112.54 127.94 5.2372 3.0237" marker-end="url(#marker1272)"/></g><path d="m112.03 124.42h6.0474" marker-end="url(#marker1404)"/></g></svg>
