<svg width="88.99mm" height="32.502mm" version="1.1" viewBox="0 0 88.99 32.502" xmlns="http://www.w3.org/2000/svg"><defs><marker id="marker1404" overflow="visible" orient="auto"><path transform="scale(-.6)" d="m8.7186 4.0337-10.926-4.0177 10.926-4.0177c-1.7455 2.3721-1.7354 5.6175-6e-7 8.0354z" fill="#f2f2f2" fill-rule="evenodd" stroke="#f2f2f2" stroke-linejoin="round" stroke-width=".625"/></marker><marker id="marker1340" overflow="visible" orient="auto"><path transform="scale(-.6)" d="m8.7186 4.0337-10.926-4.0177 10.926-4.0177c-1.7455 2.3721-1.7354 5.6175-6e-7 8.0354z" fill="#f2f2f2" fill-rule="evenodd" stroke="#f2f2f2" stroke-linejoin="round" stroke-width=".625"/></marker><marker id="marker1272" overflow="visible" orient="auto"><path transform="scale(-.6)" d="m8.7186 4.0337-10.926-4.0177 10.926-4.0177c-1.7455 2.3721-1.7354 5.6175-6e-7 8.0354z" fill="#f2f2f2" fill-rule="evenodd" stroke="#f2f2f2" stroke-linejoin="round" stroke-width=".625"/></marker><marker id="marker1218" overflow="visible" orient="auto"><path transform="scale(-.6)" d="m8.7186 4.0337-10.926-4.0177 10.926-4.0177c-1.7455 2.3721-1.7354 5.6175-6e-7 8.0354z" fill="#f2f2f2" fill-rule="evenodd" stroke="#f2f2f2" stroke-linejoin="round" stroke-width=".625"/></marker><marker id="marker1172" overflow="visible" orient="auto"><path transform="scale(-.6)" d="m8.7186 4.0337-10.926-4.0177 10.926-4.0177c-1.7455 2.3721-1.7354 5.6175-6e-7 8.0354z" fill="#f2f2f2" fill-rule="evenodd" stroke="#f2f2f2" stroke-linejoin="round" stroke-width=".625"/></marker><marker id="Arrow2Mend" overflow="visible" orient="auto"><path transform="scale(-.6)" d="m8.7186 4.0337-10.926-4.0177 10.926-4.0177c-1.7455 2.3721-1.7354 5.6175-6e-7 8.0354z" fill="#f2f2f2" fill-rule="evenodd" stroke="#f2f2f2" stroke-linejoin="round" stroke-width=".625"/></marker></defs><g transform="translate(-59.157 -108.16)"><g fill="#ececec" font-family="'Noto Sans JP'" font-size="4.9389px" stroke-width=".26458"><text x="68.319199" y="117.07812" style="line-height:1.25" xml:space="preserve"><tspan x="68.319199" y="117.07812" fill="#ececec" stroke-width=".26458">Java</tspan></text><text x="66.663429" y="126.45213" style="line-height:1.25" xml:space="preserve"><tspan x="66.663429" y="126.45213" fill="#ececec" stroke-width=".26458">Kotlin</tspan></text><text x="67.435867" y="135.59895" style="line-height:1.25" xml:space="preserve"><tspan x="67.435867" y="135.59895" fill="#ececec" stroke-width=".26458">Scala</tspan></text></g><g fill="#ececec" font-family="'Noto Sans JP'" font-size="4.9389px" stroke-width=".26458"><text x="119.29953" y="117.09293" style="line-height:1.25" xml:space="preserve"><tspan x="119.29953" y="117.09293" fill="#ececec" stroke-width=".26458">Windows</tspan></text><text x="121.42048" y="126.25334" style="line-height:1.25" xml:space="preserve"><tspan x="121.42048" y="126.25334" fill="#ececec" stroke-width=".26458">macOS</tspan></text><text x="123.31474" y="135.59895" style="line-height:1.25" xml:space="preserve"><tspan x="123.31474" y="135.59895" fill="#ececec" stroke-width=".26458">Linux</tspan></text></g><rect x="89.549" y="118.2" width="22.317" height="12.428" fill="none" stroke="#f2f2f2" stroke-linecap="round" stroke-width=".52917" style="paint-order:stroke markers fill"/><text x="92.631058" y="125.55671" fill="#f2f2f2" font-family="'Noto Sans JP'" font-size="4.9389px" font-weight="bold" stroke-width=".26458" style="line-height:1.25" xml:space="preserve"><tspan x="92.631058" y="125.55671" fill="#f2f2f2" font-family="'Noto Sans JP'" font-size="3.5278px" font-weight="bold" stroke-width=".26458">bytecode</tspan></text><g fill="#f2f2f2" stroke="#f2f2f2" stroke-width=".52917"><g transform="translate(.093866 -.75848)"><path d="m82.966 118.5 5.2372 3.0237" marker-end="url(#Arrow2Mend)"/><path d="m82.966 131.85 5.2372-3.0237" marker-end="url(#marker1172)"/></g><path d="m82.543 124.42h6.0474" marker-end="url(#marker1340)"/><g transform="translate(0 -.092618)"><path d="m112.54 121.07 5.2372-3.0237" marker-end="url(#marker1218)"/><path d="m112.54 127.94 5.2372 3.0237" marker-end="url(#marker1272)"/></g><path d="m112.03 124.42h6.0474" marker-end="url(#marker1404)"/></g></g></svg>
